<?xml version="1.0" encoding="UTF-8" standalone="no"?>
<!DOCTYPE svg PUBLIC "-//W3C//DTD SVG 1.1//EN" "http://www.w3.org/Graphics/SVG/1.1/DTD/svg11.dtd">
<svg width="100%" height="100%" viewBox="0 0 577 133" version="1.1" xmlns="http://www.w3.org/2000/svg" xmlns:xlink="http://www.w3.org/1999/xlink" xml:space="preserve" xmlns:serif="http://www.serif.com/" style="fill-rule:evenodd;clip-rule:evenodd;stroke-linejoin:round;stroke-miterlimit:2;">
    <path d="M154.7,0.4L165,0.4C174.2,0.4 177.7,1.3 181.2,4.4C184,6.8 185.7,10.7 185.7,14.2C185.7,18.8 183.9,21.9 179.9,24.3C183.5,25.6 185.5,27.1 187.1,29.8C188.3,31.8 188.9,34.5 188.9,37.3C188.9,43.5 185.5,48.7 179.9,51.2C177.2,52.4 173.4,52.9 168.8,52.9L154.8,52.9L154.8,0.4L154.7,0.4ZM167.6,20.8C173.4,20.8 176,19 176,15.1C176,11.5 173.2,9.4 168.4,9.4L164.4,9.4L164.4,20.8L167.6,20.8ZM169.3,43.8C176.1,43.6 179.2,41.5 179.2,36.9C179.2,32.5 175.7,29.9 169.6,29.9L164.5,29.9L164.5,43.8L169.3,43.8ZM216.7,12.2C228.3,12.2 237.6,21.5 237.6,33.2C237.6,44.9 228.3,54.2 216.6,54.2C205.1,54.2 195.6,44.8 195.6,33.2C195.7,21.7 205.1,12.2 216.7,12.2ZM216.7,45.6C223.1,45.6 228.1,40.2 228.1,33.4C228.1,26.6 222.9,20.9 216.6,20.9C210.3,20.9 205.1,26.5 205.1,33.2C205.1,40.2 210.2,45.6 216.7,45.6ZM279.5,13.5L279.5,52.9L270.8,52.9L270.8,49C267.7,52.9 265,54.2 260.5,54.2C256.2,54.2 252.2,52.7 249.1,49.9C245.6,46.7 244.2,43 244.2,36.6L244.2,13.5L253.7,13.5L253.7,33.6C253.7,41.5 256.5,45.5 261.7,45.5C267.1,45.5 269.9,41.5 269.9,33.6L269.9,13.5L279.5,13.5ZM289.8,13.5L298.5,13.5L298.5,17C301.3,13.4 307.1,12.7 310.9,12.7C311.1,12.7 310.6,12.7 310.9,12.7L310.9,21.4C305.1,21.6 299.3,24.6 299.3,30.9L299.3,53L289.8,53L289.8,13.5ZM396.4,13.5L405.1,13.5L405.1,17C407.9,13.4 413.7,12.7 417.5,12.7C417.7,12.7 417.2,12.7 417.5,12.7L417.5,21.4C411.7,21.6 405.9,24.6 405.9,30.9L405.9,53L396.4,53L396.4,13.5ZM329.3,45.6C331.7,45.6 333.6,43.9 333.6,41.7C333.6,39.3 332.2,38.2 326.9,36.5C322.4,35.1 321.5,34.6 319.5,32.8C317.1,30.7 315.9,27.9 315.9,24.4C315.9,17.6 321.7,12.2 329.1,12.2C336.1,12.2 341.7,17.4 342,24.3L332.8,24.3C332.4,22.1 331.1,20.9 329.1,20.9C327,20.9 325.4,22.4 325.4,24.2C325.4,26 326.4,27 329.5,27.9L332.2,28.7C335.7,29.8 337.8,30.8 339.5,32.2C342,34.3 343.2,37 343.2,40.6C343.2,48.2 336.7,54.2 328.8,54.2C323.4,54.2 318.4,51.4 316.3,46.9C315.4,45 315,43.8 314.7,40.5L324.3,40.5C325,44.1 326.5,45.6 329.3,45.6ZM368.3,12.2C379.9,12.2 389.2,21.5 389.2,33.2C389.2,44.9 379.9,54.2 368.2,54.2C356.7,54.2 347.2,44.8 347.2,33.2C347.3,21.7 356.7,12.2 368.3,12.2ZM368.3,45.6C374.7,45.6 379.7,40.2 379.7,33.4C379.7,26.6 374.5,20.9 368.2,20.9C361.9,20.9 356.7,26.5 356.7,33.2C356.7,40.2 361.8,45.6 368.3,45.6ZM459.3,52.9L450.6,52.9L450.6,48.1C447.6,51.6 441.7,54.2 436.8,54.2C425.8,54.2 417.6,45.3 417.6,33.1C417.6,21.3 426.1,12.3 437.3,12.3C442.3,12.3 447.6,14.8 450.6,18.6L450.6,13.6L459.3,13.5L459.3,52.9ZM438.8,20.9C432.2,20.9 427.1,26.3 427.1,33.4C427.1,40.3 432.2,45.6 438.8,45.6C445.5,45.6 450.4,40.3 450.4,33.1C450.4,26 445.4,20.9 438.8,20.9ZM470,13.5L478.8,13.5L478.8,16.8C481.2,13.7 484.6,12.2 489.3,12.2C494,12.2 498.1,14.4 500.7,18.4C503.6,14.2 507.8,12.2 513.4,12.2C523.6,12.2 529.4,18.6 529.4,29.9L529.4,52.9L519.9,52.9L519.9,31.1C519.9,24.3 517.4,20.8 512.4,20.8C506.9,20.8 504.4,24.6 504.4,33.2L504.4,52.8L494.9,52.8L494.9,31.1C494.9,24.5 492.1,20.8 487,20.8C481.7,20.8 479.5,24.4 479.5,33.2L479.5,52.8L470,52.8L470,13.5ZM576.6,52.9L567.9,52.9L567.9,48.1C564.9,51.6 559,54.2 554.1,54.2C543.1,54.2 534.9,45.3 534.9,33.1C534.9,21.3 543.4,12.3 554.6,12.3C559.6,12.3 564.9,14.8 567.9,18.6L567.9,13.6L576.6,13.5L576.6,52.9ZM556,20.9C549.4,20.9 544.3,26.3 544.3,33.4C544.3,40.3 549.4,45.6 556,45.6C562.7,45.6 567.6,40.3 567.6,33.1C567.6,26 562.7,20.9 556,20.9Z" style="fill:rgb(210,0,115);fill-rule:nonzero;"/>
    <path d="M179.9,90.6C183.9,88.2 185.7,85.1 185.7,80.5C185.7,77 184,73.2 181.2,70.7C177.7,67.5 174.2,66.7 165,66.7L154.7,66.7L154.7,119.2L168.7,119.2C173.4,119.2 177.1,118.6 179.8,117.5C185.4,115.1 188.8,109.8 188.8,103.6C188.8,100.8 188.2,98.1 187,96.1C185.5,93.4 183.4,91.8 179.9,90.6ZM164.4,75.8L168.4,75.8C173.2,75.8 176,77.9 176,81.5C176,85.4 173.3,87.2 167.6,87.2L164.4,87.2L164.4,75.8ZM169.3,110.1L164.4,110.1L164.4,96.3L169.5,96.3C175.6,96.3 179.1,98.9 179.1,103.3C179.2,107.9 176.1,110 169.3,110.1ZM227.1,84.8C224.2,81 218.8,78.5 213.8,78.5C202.6,78.5 194.1,87.5 194.1,99.3C194.1,111.5 202.2,120.4 213.3,120.4C218.2,120.4 224.1,117.8 227.1,114.3L227.1,119.1L235.8,119.1L235.8,79.8L227.1,79.9L227.1,84.8ZM215.3,112C208.8,112 203.6,106.6 203.6,99.8C203.6,92.7 208.6,87.3 215.3,87.3C221.9,87.3 226.9,92.4 226.9,99.5C226.9,106.7 222,112 215.3,112ZM264.6,78.5C260.4,78.5 257.2,79.9 253.8,83.2L253.8,79.8L245,79.8L245,119.2L254.5,119.2L254.5,100.5C254.5,95.8 254.7,94 255.5,92C256.5,89.2 259.6,87.2 262.7,87.2C268.1,87.2 270.7,91.3 270.7,99.8L270.7,119.2L280.2,119.2L280.2,97.9C280.2,92.3 279.7,89.6 278.1,86.5C275.7,81.7 270.3,78.5 264.6,78.5ZM318.4,84.8C315.2,80.5 311.1,78.5 305.6,78.5C294.7,78.5 285.6,87.9 285.6,99.2C285.6,111 294.5,120.4 305.5,120.4C310.3,120.4 314.6,118.7 317.6,115.4L317.6,132.3L327.1,132.3L327.1,79.8L318.4,79.8L318.4,84.8ZM306.7,111.9C300.1,111.9 295.1,106.6 295.1,99.5C295.1,92.6 300.1,87.2 306.6,87.2C312.9,87.2 318,92.7 318,99.6C318.1,106.4 313,111.9 306.7,111.9ZM361.5,100C361.5,107.9 358.7,111.9 353.3,111.9C348,111.9 345.3,107.9 345.3,100L345.3,79.9L335.8,79.9L335.8,103C335.8,109.5 337.1,113.1 340.7,116.3C343.8,119.1 347.8,120.6 352.1,120.6C356.6,120.6 359.3,119.3 362.4,115.4L362.4,119.3L371.1,119.3L371.1,79.8L361.6,79.8L361.6,100L361.5,100ZM418.8,99C418.8,87.6 409.6,78.2 398.4,78.2C387,78.2 377.7,87.7 377.7,99.6C377.7,111.3 386.9,120.5 398.5,120.5C406.3,120.5 413.6,115.7 416.7,108.7L405.6,108.7C403.7,110.8 401.3,111.9 398.2,111.9C393.4,111.9 388.9,108.4 387.7,103.8L418.3,103.8C418.7,101.5 418.8,100.4 418.8,99ZM387.3,96.1C388.6,90.6 393.1,86.9 398.5,86.9C403.9,86.9 408.2,90.5 409.5,96.1L387.3,96.1Z" style="fill:rgb(0,56,131);fill-rule:nonzero;"/>
    <path d="M118.7,18.8L118.7,20.1C118.7,25.4 116.5,30.3 112.9,33.9L104.2,42.7L79.2,67.696L79.2,98.6C79.2,109.8 88.1,119 99,119C109.9,119 118.8,109.8 118.8,98.6L118.8,20.8C118.8,20.1 118.8,19.5 118.7,18.8Z" style="fill:rgb(210,0,115);fill-rule:nonzero;"/>
    <path d="M51.5,39.9L5.5,85.9C-1.6,93.9 -1.6,106 5.8,113.4L79.3,39.9L51.5,39.9Z" style="fill:rgb(35,187,234);fill-rule:nonzero;"/>
    <path d="M5.9,113.3C13.3,120.7 25.4,120.7 33.3,113.6L79.2,67.7L79.3,39.9L5.9,113.3Z" style="fill:rgb(0,157,224);fill-rule:nonzero;"/>
    <path d="M104.3,42.7L113,33.9C109.3,37.6 104.1,39.9 98.4,39.9L79.3,39.9L79.2,67.696L104.3,42.7Z" style="fill:rgb(0,111,183);fill-rule:nonzero;"/>
    <path d="M96.8,0.5L98.7,0.5L20.5,0.5C9.3,0.3 0.1,9.2 0.1,20.1C0.1,31 9.3,39.9 20.5,39.9L51.5,39.9L84.2,7.1C87.4,3.5 91.8,1.1 96.8,0.5Z" style="fill:rgb(210,0,115);fill-rule:nonzero;"/>
    <path d="M79.3,39.9L79.3,18.3C79.3,18.1 79.3,18 79.4,17.8L79.4,17.7C79.5,17.1 79.6,16.5 79.7,16C80.4,12.7 81.9,9.6 84.1,7.1L51.5,39.9L79.3,39.9Z" style="fill:rgb(0,111,183);fill-rule:nonzero;"/>
    <path d="M118.7,18.8C118.6,17.9 118.5,16.9 118.3,16C116.5,7 108.6,0.3 99.1,0.3L96.9,0.3C92.518,0.826 88.913,2.792 85.769,5.532C85.326,5.919 84.823,6.493 84.4,6.9C82.133,9.085 80.333,12.606 79.661,16.135C79.547,16.732 79.568,16.637 79.468,17.237C79.468,17.237 79.4,17.82 79.3,18.02L79.3,39.9L98.7,39.9C110.04,40.179 118.9,30.461 118.8,19.361C118.5,19.161 118.8,19.3 118.7,18.8Z" style="fill:rgb(0,56,131);fill-rule:nonzero;"/>
</svg>