<?xml version="1.0" encoding="UTF-8"?>
<!-- Generator: Adobe Illustrator 13.0.0, SVG Export Plug-In . SVG Version: 6.00 Build 14948)  -->
<!DOCTYPE svg PUBLIC "-//W3C//DTD SVG 1.1//EN" "http://www.w3.org/Graphics/SVG/1.1/DTD/svg11.dtd">
<svg version="1.1" id="Ebene_1" xmlns="http://www.w3.org/2000/svg" xmlns:xlink="http://www.w3.org/1999/xlink" x="0px" y="0px" width="516.405px" height="515.507px" viewBox="0 0 516.405 515.507" enable-background="new 0 0 516.405 515.507" xml:space="preserve">
<g>
	<g>
		<g>
			<g>
				<path fill="#7B7C7E" d="M142.796,386.552c-8.922,0-14.25-5.24-14.25-14.014c0-7.42,4.71-21.461,22.549-21.461      c4.647,0,8.931,0.689,13.475,2.148c-0.008,0,0.654,0.221,0.654,0.221l2.19,0.717l3.048-16.777l-2.353-0.654      c-6.221-1.631-11.363-2.357-16.67-2.357c-24.211,0-41.125,15.586-41.125,37.891c0,18.529,12.6,30.98,31.348,30.98      c7.432,0,14.177-1.592,21.874-5.156l1.307-0.605l2.72-20.674l-4.678,2.852C154.721,384.554,148.896,386.552,142.796,386.552z"/>
				<polygon fill="#7B7C7E" points="243.377,335.194 234.368,402.431 252.205,402.431 261.215,335.194     "/>
				<path fill="#7B7C7E" d="M292.133,349.989c3.696,0,9.419,2.158,13.027,4.916l3.496,2.676l2.69-16.953l-1.47-0.947      c-5.498-3.418-11.985-5.307-18.262-5.307c-13.335,0-23.389,9.174-23.389,21.342c0,10.494,7.7,15.504,13.89,19.527      c4.855,3.158,7.819,5.234,7.819,8.203c0,3.891-4.479,4.189-5.854,4.189c-4.263,0-10.752-2.5-15.096-5.826      c-0.007-0.004-3.444-2.602-3.444-2.602l-2.939,16.729l1.416,0.951c6.284,4.336,13.135,6.357,21.536,6.357      c15.627,0,22.617-10.859,22.617-21.621c0-11.553-8.521-16.898-14.742-20.801c-3.75-2.357-6.975-4.379-6.975-6.645      C286.454,351.751,288.842,349.989,292.133,349.989z"/>
				<path fill="#7B7C7E" d="M381.833,375.8c2.959,0,21.369,0,21.369,0l2.075-15.615c0,0-17.69,0-21.351,0      c0.369-2.732,1.07-7.871,1.275-9.375c3.02,0,24.309,0,24.309,0l2.095-15.615h-42.163l-9.004,67.236h48.467L411,386.815      c0,0-26.714,0-30.64,0C380.6,385.019,381.532,378.05,381.833,375.8z"/>
				<path fill="#7B7C7E" d="M30.853,447.454H8.91L0,514.69h33.456c17.371,0,30.475-14.799,30.475-34.434      C63.931,464.403,55.239,447.454,30.853,447.454z M28.693,499.075c0,0-5.891,0-8.773,0c0.487-3.691,4.386-33.197,4.758-36.01      c1.63,0,3.75,0,3.75,0c10.658,0,17.282,6.518,17.282,17.012C45.709,483.245,44.888,499.075,28.693,499.075z"/>
				<path fill="#7B7C7E" d="M120.636,488.06c2.962,0,21.377,0,21.377,0l2.091-15.607c0,0-17.705,0-21.369,0      c0.364-2.648,0.988-7.268,1.278-9.387c3.019,0,24.315,0,24.315,0l2.081-15.611h-42.155l-9.009,67.236h48.472l2.09-15.615      c0,0-26.708,0-30.634,0C119.341,497.841,120.312,490.487,120.636,488.06z"/>
				<path fill="#7B7C7E" d="M185.995,447.454h-21.596l-8.918,67.236h17.837c0,0,2.723-20.391,3.121-23.354c2.325,0,7.649,0,7.649,0      c11.599,0,23.989-5.992,23.989-22.809C208.078,455.921,199.202,447.454,185.995,447.454z M180.711,476.36c0,0-1.142,0-2.288,0      c0.407-3.07,1.505-11.396,1.826-13.838c0.296,0,0.718,0,0.718,0c4.058,0,8.89,1.141,8.89,6.549      C189.856,475.097,184.883,476.36,180.711,476.36z"/>
				<path fill="#7B7C7E" d="M311.098,491.22c-0.931-1.939-2.026-3.902-3.618-5.592c6.639-3.012,10.793-9.096,10.793-16.914      c0-10.238-7.053-21.26-22.536-21.26h-22.544l-8.906,67.236h17.842c0,0,2.891-22.051,3.286-25.082c0.104,0,0.371,0,0.371,0      c4.424,0,5.225,0,10.153,10.99c0,0.006,6.326,14.092,6.326,14.092h19.644L311.098,491.22z M290.639,474.716c0,0-1.665,0-3.232,0      c0.405-3.063,1.411-10.557,1.556-11.65c1.652,0,3.842,0,3.842,0c3.301,0,7.239,0.922,7.239,5.287      C300.043,471.435,297.572,474.716,290.639,474.716z"/>
				<path fill="#7B7C7E" d="M367.87,463.343c5.156,0,9.482,0.631,14.946,2.174c0.007,0.004,2.933,0.814,2.933,0.814l2.136-16.641      l-2.095-0.654c-5.02-1.572-11.213-2.402-17.92-2.402c-30.991,0-45.107,19.83-45.107,38.252c0,14.801,9.438,30.621,35.933,30.621      c6.807,0,15.547-0.879,19.092-1.92c0.026-0.004,1.626-0.498,1.626-0.498l4.873-36.279h-28.657l-2.002,15.059      c0,0,7.964,0,10.82,0c-0.205,1.484-0.654,4.844-0.837,6.182c-2.266,0.508-4.121,0.758-6.463,0.758      c-10.269,0-16.152-5.234-16.152-14.371C340.995,472.021,352.05,463.343,367.87,463.343z"/>
				<path fill="#7B7C7E" d="M439.013,447.454c0,0-3.516,26.949-4.619,35.396c-4.514-7.672-20.82-35.396-20.82-35.396h-16.34      l-9.021,67.236h17.854c0,0,3.729-28.239,4.866-36.85c4.531,7.855,21.25,36.85,21.25,36.85h15.762l8.896-67.236H439.013z"/>
				<path fill="#7B7C7E" d="M478.471,488.06c2.964,0,21.362,0,21.362,0l2.08-15.607c0,0-17.7,0-21.362,0      c0.208-1.506,0.967-7.088,1.274-9.387c3.022,0,24.328,0,24.328,0l2.078-15.611h-42.156l-9.004,67.236h48.475l2.085-15.615      c0,0-26.702,0-30.628,0C477.382,496.249,478.173,490.312,478.471,488.06z"/>
				<path fill="#7B7C7E" d="M341.14,349.989c3.698,0,9.421,2.158,13.029,4.916l3.498,2.676l2.693-16.977l-1.486-0.924l0.002,0.006      c-5.493-3.424-11.973-5.313-18.26-5.313c-13.33,0-23.386,9.174-23.386,21.342c0,10.508,7.712,15.514,13.911,19.537      c4.844,3.148,7.808,5.225,7.808,8.193c0,3.891-4.479,4.189-5.856,4.189c-4.261,0-10.758-2.5-15.11-5.826      c0.01,0.006-0.796-0.607-0.796-0.607l-2.625-2.02l-2.949,16.734l1.38,0.951c6.315,4.355,13.164,6.377,21.572,6.377      c15.62,0,22.617-10.859,22.617-21.621c0-11.557-8.522-16.898-14.743-20.805c-3.748-2.35-6.979-4.371-6.979-6.641      C335.46,351.712,337.797,349.989,341.14,349.989z"/>
				<polygon fill="#7B7C7E" points="78.535,448.463 67.685,468.089 80.669,468.089 102.538,448.463     "/>
			</g>
			<path fill="#7B7C7E" d="M246.408,446.634h-17.235l-31.313,68.057h19.68c0,0,4.861-11.527,5.713-13.539c2.021,0,11.702,0,14.301,0     c0.355,2.646,1.826,13.539,1.826,13.539h18.277L246.408,446.634z M226.603,488.909l7.975-21.088l2.394,21.088H226.603z"/>
			<path fill="#7B7C7E" d="M215.543,334.374h-17.23l-31.31,68.057h19.68c0,0,4.853-11.51,5.708-13.545c2.021,0,11.702,0,14.301,0     c0.355,2.641,1.822,13.545,1.822,13.545h18.281L215.543,334.374z M195.983,376.448l7.977-21.084l2.396,21.084H195.983z"/>
		</g>
		<polygon fill="#E20025" points="516.405,419.095 508.891,431.103 11.159,431.103 19.321,419.095   "/>
	</g>
	<g>
		<g>
			<rect x="112.804" fill="#E20025" width="298.733" height="297.737"/>
		</g>
		<g>
			<polygon fill="#FFFFFF" points="283.874,229.873 358.214,229.873 369.35,211.281 368.031,211.281 296.366,211.281    "/>
			<path fill="#FFFFFF" d="M342.851,162.383c-1.157,0.773-18.413,12.264-18.413,12.264l9.759,15.223l33.646-22.252l-25.319-38.922     l-0.632,0.397l-1.377,0.889l0,0l-13.235,8.475C327.279,138.457,342.079,161.198,342.851,162.383z"/>
			<path fill="#FFFFFF" d="M318.144,83.267c0,0-105.351,166.787-106.313,168.301c-4.249-3.896-15.562-15.918-19.256-36.226     c-0.308-3.369-0.47-6.814-0.47-10.208c0-3.435,0.171-6.765,0.479-10.02h32.165l11.789-18.691h-1.36h-38.957     c1.705-5.63,3.937-11.006,6.617-16.182h43.584l11.835-18.685h-1.369h-41.763c4.344-5.399,9.236-10.625,14.631-15.73h38.667     l11.914-18.671h-1.362h-26.841c4.719-3.558,9.644-7.097,14.785-10.645c31.44-22.902,95.898-51.296,98.618-52.494     c0.034-0.013,0.698-0.309,0.698-0.309l18.428-29.27l-2.31,1.069l-5.078,2.365C374.657,19.094,313.075,47.902,257.865,80     c-14.516,8.435-26.871,17.614-37.346,27.155h-39.851l-11.967,18.671h34.003c-4.28,5.221-8.059,10.484-11.382,15.73h-32.779     l-11.801,18.685h34.597c-2.419,5.498-4.348,10.911-5.84,16.182h-38.625l-11.929,18.691h47c-0.27,2.845-0.415,5.64-0.415,8.309     c0,5.788,0.616,11.472,1.834,16.906c10.62,47.398,41.339,58.482,42.643,58.932l1.8,0.618l112.034-178.007L318.144,83.267z"/>
			<polygon fill="#FFFFFF" points="248.857,264.013 236.372,282.62 367.089,282.62 378.231,264.013 376.908,264.013    "/>
			<path fill="#FFFFFF" d="M316.269,142.095c-6.221,0-11.274,5.054-11.274,11.267c0,6.204,5.054,11.258,11.274,11.258     c6.211,0,11.265-5.054,11.265-11.258C327.533,147.148,322.479,142.095,316.269,142.095z"/>
		</g>
	</g>
</g>
</svg>